<?xml version="1.0" encoding="utf-8"?>
<!-- Generator: Adobe Illustrator 17.0.0, SVG Export Plug-In . SVG Version: 6.00 Build 0)  -->
<!DOCTYPE svg PUBLIC "-//W3C//DTD SVG 1.1//EN" "http://www.w3.org/Graphics/SVG/1.1/DTD/svg11.dtd" [
	<!ENTITY ns_flows "http://ns.adobe.com/Flows/1.0/">
	<!ENTITY ns_extend "http://ns.adobe.com/Extensibility/1.0/">
	<!ENTITY ns_ai "http://ns.adobe.com/AdobeIllustrator/10.0/">
	<!ENTITY ns_graphs "http://ns.adobe.com/Graphs/1.0/">
]>
<svg version="1.1" id="레이어_1" xmlns:x="&ns_extend;" xmlns:i="&ns_ai;" xmlns:graph="&ns_graphs;"
	 xmlns="http://www.w3.org/2000/svg" xmlns:xlink="http://www.w3.org/1999/xlink" xmlns:a="http://ns.adobe.com/AdobeSVGViewerExtensions/3.0/"
	 x="0px" y="0px" width="17.1px" height="17.1px" viewBox="0 0 17.1 17.1" style="enable-background:new 0 0 17.1 17.1;"
	 xml:space="preserve">
<g>
	<g>
		<path style="fill:#727171;" d="M8.6,17.1C3.8,17.1,0,13.3,0,8.6S3.8,0,8.6,0s8.6,3.8,8.6,8.6S13.3,17.1,8.6,17.1z M8.6,1.4
			c-3.9,0-7.1,3.2-7.1,7.1s3.2,7.1,7.1,7.1s7.1-3.2,7.1-7.1S12.5,1.4,8.6,1.4z"/>
		<path style="fill:#727171;" d="M9.3,11.4c-0.2,0-0.4-0.1-0.5-0.2L6.6,9.1c-0.3-0.3-0.3-0.7,0-1l2.1-2.1c0.3-0.3,0.7-0.3,1,0
			c0.3,0.3,0.3,0.7,0,1L8.1,8.6l1.6,1.6c0.3,0.3,0.3,0.7,0,1C9.6,11.3,9.4,11.4,9.3,11.4z"/>
	</g>
</g>
</svg>
