<?xml version="1.0" encoding="utf-8"?>
<!-- Generator: Adobe Illustrator 17.0.0, SVG Export Plug-In . SVG Version: 6.00 Build 0)  -->
<!DOCTYPE svg PUBLIC "-//W3C//DTD SVG 1.1//EN" "http://www.w3.org/Graphics/SVG/1.1/DTD/svg11.dtd" [
	<!ENTITY ns_flows "http://ns.adobe.com/Flows/1.0/">
	<!ENTITY ns_extend "http://ns.adobe.com/Extensibility/1.0/">
	<!ENTITY ns_ai "http://ns.adobe.com/AdobeIllustrator/10.0/">
	<!ENTITY ns_graphs "http://ns.adobe.com/Graphs/1.0/">
]>
<svg version="1.1" id="레이어_1" xmlns:x="&ns_extend;" xmlns:i="&ns_ai;" xmlns:graph="&ns_graphs;"
	 xmlns="http://www.w3.org/2000/svg" xmlns:xlink="http://www.w3.org/1999/xlink" xmlns:a="http://ns.adobe.com/AdobeSVGViewerExtensions/3.0/"
	 x="0px" y="0px" width="11.4px" height="15.2px" viewBox="0 0 11.4 15.2" style="enable-background:new 0 0 11.4 15.2;"
	 xml:space="preserve">
<g>
	<path style="fill:#40220F;" d="M8.6,1.4L8,0.3C7.9,0.1,7.8,0,7.6,0H3.8C3.6,0,3.4,0.1,3.4,0.3L2.8,1.4H0.5C0.2,1.4,0,1.6,0,1.9
		v12.8c0,0.3,0.2,0.5,0.5,0.5h10.4c0.3,0,0.5-0.2,0.5-0.5V1.9c0-0.3-0.2-0.5-0.5-0.5H8.6z M4.1,0.9h3.2l0.9,1.9H3.1L4.1,0.9z
		 M10.4,14.2H0.9V2.4h1.4L1.9,3.1C1.9,3.3,1.9,3.4,2,3.6c0.1,0.1,0.2,0.2,0.4,0.2H9c0,0,0,0,0,0c0.3,0,0.5-0.2,0.5-0.5
		c0-0.1,0-0.2-0.1-0.3L9.1,2.4h1.4V14.2z"/>
	<path style="fill:#40220F;" d="M9,5.2H4.7c-0.3,0-0.5,0.2-0.5,0.5s0.2,0.5,0.5,0.5H9c0.3,0,0.5-0.2,0.5-0.5S9.3,5.2,9,5.2z"/>
	<path style="fill:#40220F;" d="M9,7.6H4.7c-0.3,0-0.5,0.2-0.5,0.5s0.2,0.5,0.5,0.5H9c0.3,0,0.5-0.2,0.5-0.5S9.3,7.6,9,7.6z"/>
	<path style="fill:#40220F;" d="M9,10H4.7c-0.3,0-0.5,0.2-0.5,0.5s0.2,0.5,0.5,0.5H9c0.3,0,0.5-0.2,0.5-0.5S9.3,10,9,10z"/>
	<path style="fill:#40220F;" d="M9,12.3H4.7c-0.3,0-0.5,0.2-0.5,0.5s0.2,0.5,0.5,0.5H9c0.3,0,0.5-0.2,0.5-0.5S9.3,12.3,9,12.3z"/>
	<path style="fill:#40220F;" d="M2.8,5.2H2.4c-0.3,0-0.5,0.2-0.5,0.5s0.2,0.5,0.5,0.5h0.5c0.3,0,0.5-0.2,0.5-0.5S3.1,5.2,2.8,5.2z"
		/>
	<path style="fill:#40220F;" d="M2.8,7.6H2.4c-0.3,0-0.5,0.2-0.5,0.5s0.2,0.5,0.5,0.5h0.5c0.3,0,0.5-0.2,0.5-0.5S3.1,7.6,2.8,7.6z"
		/>
	<path style="fill:#40220F;" d="M2.8,10H2.4c-0.3,0-0.5,0.2-0.5,0.5s0.2,0.5,0.5,0.5h0.5c0.3,0,0.5-0.2,0.5-0.5S3.1,10,2.8,10z"/>
	<path style="fill:#40220F;" d="M2.8,12.3H2.4c-0.3,0-0.5,0.2-0.5,0.5s0.2,0.5,0.5,0.5h0.5c0.3,0,0.5-0.2,0.5-0.5S3.1,12.3,2.8,12.3
		z"/>
</g>
</svg>
