<?xml version="1.0" encoding="utf-8"?>
<!-- Generator: Adobe Illustrator 17.0.0, SVG Export Plug-In . SVG Version: 6.00 Build 0)  -->
<!DOCTYPE svg PUBLIC "-//W3C//DTD SVG 1.1//EN" "http://www.w3.org/Graphics/SVG/1.1/DTD/svg11.dtd" [
	<!ENTITY ns_flows "http://ns.adobe.com/Flows/1.0/">
	<!ENTITY ns_extend "http://ns.adobe.com/Extensibility/1.0/">
	<!ENTITY ns_ai "http://ns.adobe.com/AdobeIllustrator/10.0/">
	<!ENTITY ns_graphs "http://ns.adobe.com/Graphs/1.0/">
]>
<svg version="1.1" id="레이어_1" xmlns:x="&ns_extend;" xmlns:i="&ns_ai;" xmlns:graph="&ns_graphs;"
	 xmlns="http://www.w3.org/2000/svg" xmlns:xlink="http://www.w3.org/1999/xlink" xmlns:a="http://ns.adobe.com/AdobeSVGViewerExtensions/3.0/"
	 x="0px" y="0px" width="23.9px" height="20.6px" viewBox="0 0 23.9 20.6" style="enable-background:new 0 0 23.9 20.6;"
	 xml:space="preserve">
<g>
	<path style="fill:#40220F;" d="M10.6,17.1c-0.5,0-0.8-0.4-0.9-0.8c0-0.5,0.3-0.9,0.8-0.9c4.3-0.3,7.6-3.3,7.6-6.8
		c0-3.8-3.7-6.9-8.2-6.9c-4.5,0-8.2,3.1-8.2,6.9c0,2.6,1.8,5,4.7,6.2c0.4,0.2,0.7,0.7,0.5,1.1c-0.2,0.4-0.7,0.7-1.1,0.5
		C2.3,15,0,11.9,0,8.6C0,3.8,4.5,0,9.9,0s9.9,3.8,9.9,8.6C19.9,13.1,15.8,16.8,10.6,17.1C10.6,17.1,10.6,17.1,10.6,17.1z"/>
	<path style="fill:#40220F;" d="M4.9,20.6c-0.4,0-0.7-0.3-0.8-0.6c-0.1-0.4,0-0.8,0.4-1c0.3-0.2,1.3-1,1.4-1.8
		c0.1-0.4-0.1-0.7-0.4-1.1c-0.3-0.4-0.3-0.9,0.1-1.2c0.4-0.3,0.9-0.3,1.2,0.1c0.8,1,0.9,1.9,0.8,2.5c-0.1,0.4-0.2,0.7-0.4,1.1
		C8.7,18,9.5,16.9,9.8,16c0.2-0.4,0.7-0.7,1.1-0.5c0.4,0.2,0.7,0.7,0.5,1.1C10.9,18.1,9.3,20.6,4.9,20.6z"/>
	<path style="fill:#40220F;" d="M17,18.3C16.9,18.3,16.9,18.3,17,18.3c-1.9-0.1-3.5-0.7-4.6-1.9c-0.3-0.3-0.3-0.9,0-1.2
		c0.3-0.3,0.9-0.3,1.2,0c0.8,0.8,1.9,1.3,3.4,1.4c0.5,0,0.8,0.4,0.8,0.9C17.8,17.9,17.4,18.3,17,18.3z"/>
	<path style="fill:#40220F;" d="M19.9,18c-0.3,0-0.7-0.2-0.8-0.5c-0.2-0.4,0-0.9,0.5-1.1c1.6-0.6,2.6-2,2.6-3.5
		c0-1.7-1.4-3.2-3.4-3.7c-0.5-0.1-0.7-0.6-0.6-1c0.1-0.5,0.6-0.7,1-0.6c2.8,0.7,4.7,2.9,4.7,5.4c0,2.2-1.5,4.2-3.7,5.1
		C20.1,18,20,18,19.9,18z"/>
	<path style="fill:#40220F;" d="M20.6,20.6c-2.9,0-3.9-1.7-4.3-2.7c-0.2-0.4,0.1-0.9,0.5-1.1c0.4-0.2,0.9,0.1,1.1,0.5
		c0.2,0.4,0.4,0.8,0.7,1c-0.1-0.4,0-1.1,0.6-1.7c0.3-0.4,0.9-0.4,1.2-0.1c0.4,0.3,0.4,0.9,0.1,1.2c-0.2,0.2-0.2,0.4-0.2,0.4
		c0,0.3,0.4,0.7,0.7,0.9c0.3,0.2,0.5,0.6,0.4,1C21.3,20.3,21,20.6,20.6,20.6z"/>
	<path style="fill:#40220F;" d="M13.7,8.2H5.1c-0.5,0-0.9-0.5-0.9-1s0.4-1,0.9-1h8.6c0.5,0,0.9,0.5,0.9,1S14.2,8.2,13.7,8.2z"/>
	<path style="fill:#40220F;" d="M12,11.2H5.1c-0.5,0-0.9-0.5-0.9-1s0.4-1,0.9-1H12c0.5,0,0.9,0.5,0.9,1S12.5,11.2,12,11.2z"/>
</g>
</svg>
