<?xml version="1.0" encoding="utf-8"?>
<!-- Generator: Adobe Illustrator 17.0.0, SVG Export Plug-In . SVG Version: 6.00 Build 0)  -->
<!DOCTYPE svg PUBLIC "-//W3C//DTD SVG 1.1//EN" "http://www.w3.org/Graphics/SVG/1.1/DTD/svg11.dtd" [
	<!ENTITY ns_flows "http://ns.adobe.com/Flows/1.0/">
	<!ENTITY ns_extend "http://ns.adobe.com/Extensibility/1.0/">
	<!ENTITY ns_ai "http://ns.adobe.com/AdobeIllustrator/10.0/">
	<!ENTITY ns_graphs "http://ns.adobe.com/Graphs/1.0/">
]>
<svg version="1.1" id="레이어_1" xmlns:x="&ns_extend;" xmlns:i="&ns_ai;" xmlns:graph="&ns_graphs;"
	 xmlns="http://www.w3.org/2000/svg" xmlns:xlink="http://www.w3.org/1999/xlink" xmlns:a="http://ns.adobe.com/AdobeSVGViewerExtensions/3.0/"
	 x="0px" y="0px" width="188px" height="173.2px" viewBox="0 0 188 173.2" style="enable-background:new 0 0 188 173.2;"
	 xml:space="preserve">
<g>
	<defs>
		<rect id="SVGID_1_" x="-18.9" y="-44.8" width="235" height="218"/>
	</defs>
	<clipPath id="SVGID_2_">
		<use xlink:href="#SVGID_1_"  style="overflow:visible;"/>
	</clipPath>
	<g style="clip-path:url(#SVGID_2_);">
		<g>
			<g>
				<path style="fill:#FFFFFF;" d="M121.9,144.4c0,0-38.5,31-73.3,4c0,0-4.9-3.9-6.1-5.7c0,0-5.2-15.9-5.9-4.5c0,0-10.7-7.1-5.2,4
					c0,0-12.4-3.3,1.8,7.8c0,0,16,39.9,70.6,38.1"/>
				<path style="fill:none;stroke:#333333;stroke-width:1.5;stroke-linecap:round;stroke-linejoin:round;stroke-miterlimit:10;" d="
					M121.9,144.4c0,0-38.5,31-73.3,4c0,0-4.9-3.9-6.1-5.7c0,0-5.2-15.9-5.9-4.5c0,0-10.7-7.1-5.2,4c0,0-12.4-3.3,1.8,7.8
					c0,0,14.2,40.7,70.6,38.1"/>
			</g>
			<g>
				<path style="fill:#FFDF4B;" d="M105.8,261.3l-0.8,29c0,0-8.3,8.6-16,17c-7.7,8.4,4.6,13,15.7,11.3c11.3-1.7,11.3-5.3,12.5-8.7
					c4.1-10.9-7.4-19-7.4-19l6.9-27.3L105.8,261.3z"/>
				<path style="fill:#FFC225;" d="M111,273.2c0.1,0,0.1-0.1,0.2-0.1c0.1-0.2,0.1-0.4,0.2-0.6c0.6-1.4,2.6-1.3,3,0.2
					c0.3,1.2-0.1,2.4-0.7,3.5c0,0,0,0-0.1,0.1c0,0.4-0.1,0.9-0.2,1.3c-0.2,0.4-0.5,0.7-0.9,0.9c-0.3,4.5-1.5,9.1-2.9,13.3
					c0.3,0.1,0.7,0.3,0.9,0.8c0.2,0.5,0.5,0.9,0.6,1.4c4.1,5.5,7.1,14.3,3.9,20.7c-0.1,0-0.2,0.1-0.3,0.1c-1.6,0.8-3.2,1.6-4.9,2.1
					c-0.6,0.2-1.2,0.4-1.8,0.6c-0.2,0-0.5,0.1-0.7,0.1c0,0,0,0,0,0c-0.2,0-0.2,0-0.1,0c-0.2,0-0.4-0.1-0.5-0.1
					c-0.1-0.4,0-0.9,0.4-1.4c4.5-4.7,3.7-13.7,1.8-19.6c-0.4-1.1-0.9-2-1.1-2.8c-0.1-0.4-0.1-0.8,0-1.1c-0.8-0.2-1.4-0.9-1-1.8
					c1.8-5.2,3.2-10.9,2.8-16.4C109.3,273.5,110.1,273.1,111,273.2z"/>
				<path style="fill:#FFFFFF;" d="M112.8,315.4c-0.7,0.4-4.3,1.7-4.7,1.2c-0.6-0.7-1.1,0.4,0,0c10.5-3.8,10-15.1,1.3-26.3
					C108.2,288.8,126.6,308.4,112.8,315.4z"/>
				<path style="fill:#333333;" d="M117.1,263.5c-1.3,5.2-2.6,10.4-3.9,15.6c-0.8,3.2-1.6,6.4-2.4,9.7c-0.5,2.2-0.7,1.5,0.9,3
					c4.6,4.1,8.3,10.7,6.3,16.9c-2.3,7.2-5.9,9.2-13.5,10.5c-4.3,0.7-18.2,0.9-18.3-6.1c0-3.1,2-5.2,4-7.4c4.3-4.7,8.6-9.3,13-13.8
					c1.9-2,1.4-0.6,1.5-3.2c0.1-3.3,0.2-6.6,0.3-9.9c0.2-5.7,0.3-11.3,0.5-17c0-0.4,0.9-1.2,0.9-0.7c-0.2,7-0.4,13.9-0.6,20.9
					c-0.1,2.7-0.1,5.4-0.2,8.1c-0.1,1.9-4.4,4.9-5.5,6.1c-4,4.2-17.7,14.8-10.3,20.1c5.9,4.2,16.2,2.7,22.3,0.2
					c6.1-2.5,6.2-11.8,4-16.8c-1.4-3.1-3.9-5.9-6.7-7.9c-0.1-0.1-0.1-0.2-0.1-0.3c2.3-9.1,4.6-18.2,6.9-27.3
					C116.3,263.5,117.3,262.8,117.1,263.5L117.1,263.5z"/>
			</g>
			<g>
				<path style="fill:#FFDF4B;" d="M149.9,259.7l3.7,29.6c0,0-6.8,9.9-12.9,19.6c-6.2,9.7,6.5,12.5,17,9.2
					c10.7-3.3,10.1-6.9,10.8-10.6c2.2-11.7-10.1-18.2-10.1-18.2l2.5-28.7L149.9,259.7z"/>
				<path style="fill:#FFC225;" d="M156.8,271c0-0.1,0.1-0.1,0.2-0.1c0-0.2,0.1-0.4,0.1-0.6c0.3-1.5,2.3-1.7,2.9-0.3
					c0.4,1.2,0.3,2.5-0.2,3.6c0,0,0,0.1,0,0.1c0,0.4,0.1,0.9,0,1.3c-0.1,0.5-0.4,0.8-0.7,1c0.4,4.6,0,9.5-0.8,14
					c0.3,0.1,0.7,0.2,1,0.7c0.3,0.4,0.6,0.9,0.9,1.4c4.9,5,9.2,13.5,7,20.5c-0.1,0-0.2,0.1-0.3,0.2c-1.5,1.1-2.8,2.1-4.4,2.8
					c-0.5,0.3-1.1,0.5-1.7,0.9c-0.2,0.1-0.4,0.1-0.6,0.2c0,0,0,0,0,0c-0.2,0-0.2,0-0.1,0c-0.2,0-0.4,0-0.5-0.1
					c-0.2-0.4-0.2-1,0.2-1.5c3.7-5.4,1.5-14.5-1.3-20.1c-0.6-1.1-1.2-2-1.5-2.6c-0.2-0.4-0.2-0.7-0.2-1.1c-0.8-0.1-1.5-0.7-1.3-1.7
					c0.9-5.5,1.4-11.5,0.2-17C155.2,271.6,156,271,156.8,271z"/>
				<path style="fill:#FFFFFF;" d="M165.1,313.7c-0.7,0.5-3.9,2.3-4.4,1.9c-0.6-0.6-1,0.5,0,0c9.6-5.3,7.4-16.8-2.9-26.9
					C156.5,287.2,177.4,304.6,165.1,313.7z"/>
				<path style="fill:#333333;" d="M161.3,260.3c-0.5,5.4-0.9,10.9-1.4,16.3c-0.2,2.4-2.2,11.5-0.4,12.6c5.2,3.3,10.2,9,9.7,15.6
					c-0.5,7.2-3.2,10.5-10,13.1c-4.5,1.7-18.2,4.6-20.3-2.4c-1.1-3.7,1.5-6.8,3.4-9.7c3.2-4.9,6.4-9.8,9.7-14.7
					c2.2-3.3,0.2-9.4-0.4-13.9c-0.7-5.7-1.5-11.5-2.2-17.2c0-0.4,1-1.1,1-0.7c0.9,7.3,1.8,14.6,2.8,21.9c0.3,2.6,0.6,5.1,1,7.7
					c0.1,0.5-0.7,1.2-0.9,1.5c-1.8,2.7-3.6,5.4-5.4,8.1c-3.2,4.9-13.1,15.3-4.5,19.3c6.4,3,19.2,0.4,23.3-5.2
					c3.2-4.4,1.5-11.9-1.1-16c-1.8-2.8-4.6-5.3-7.6-6.9c-0.1-0.1-0.1-0.1-0.1-0.2c0.8-9.6,1.6-19.1,2.5-28.7
					C160.4,260.5,161.4,259.8,161.3,260.3L161.3,260.3z"/>
			</g>
			<path style="fill:#FFFFFF;" d="M168.2,39.8c0,0,6.6,13.7-2.9,53.7c-9.5,40-8.5,41.2-5.6,50.5c2.9,9.2,24.7,29.3,28,86.2
				c0,0,16.3-8.2,16.9,3.8c0.6,12-16.1,11.3-18.5,13.9c-2.3,2.6-3.3,10.6-26.4,18c-23.1,7.4-79.8,13.3-82.2-16.6
				c-2.3-29.9,3.3-66,9.9-83.7c6.6-17.6,14.4-43.6,14.8-51c0.4-7.4-8-69,9.9-85.2c17.9-16.3,39.8-7.2,42.2-6.1
				C156.5,24.4,163.9,28.5,168.2,39.8z"/>
			<path style="fill:#333333;" d="M143,44.9c0.4,0,0.7-0.3,0.7-0.6c0.1-0.4-0.2-0.8-0.6-0.9l-6.8-1.4c-0.4-0.1-0.8,0.2-0.9,0.6
				c-0.1,0.4,0.2,0.8,0.6,0.9l6.8,1.4C142.9,44.9,142.9,44.9,143,44.9z"/>
			<path style="fill:#333333;" d="M133.2,55.1c-0.2,1.4,0.7,2.6,2,2.9l2.4,0.4c1.3,0.2,2.6-0.7,2.9-2l0.4-2.4c0.2-1.3-0.7-2.6-2-2.9
				l-2.4-0.4c-1.4-0.2-2.6,0.7-2.9,2L133.2,55.1z"/>
			<path style="fill:#333333;" d="M121.6,40.8c0.4,0,0.7-0.3,0.7-0.6c0.1-0.4-0.2-0.8-0.6-0.9l-6.8-1.4c-0.4-0.1-0.8,0.2-0.9,0.6
				c-0.1,0.4,0.2,0.8,0.6,0.9l6.8,1.4C121.5,40.8,121.5,40.8,121.6,40.8z"/>
			<path style="fill:#333333;" d="M111.8,51c-0.2,1.4,0.7,2.6,2,2.9l2.4,0.4c1.3,0.2,2.6-0.7,2.9-2l0.4-2.4c0.2-1.3-0.7-2.6-2-2.9
				l-2.4-0.4c-1.3-0.2-2.6,0.7-2.9,2L111.8,51z"/>
			<path style="fill:#FAF8F3;" d="M143.3,64.1c0.7,2.1,3.1,3.3,5.2,2.5l3.9-1.3c2.1-0.7,3.3-3.1,2.5-5.2l0,0
				c-0.7-2.1-3.1-3.3-5.2-2.5l-3.9,1.3C143.7,59.7,142.6,62,143.3,64.1L143.3,64.1z"/>
			<path style="fill:#FAF8F3;" d="M112,59c-0.7,2.1-3.1,3.3-5.2,2.5l-3.9-1.3c-2.1-0.7-3.3-3.1-2.5-5.2l0,0c0.7-2.1,3.1-3.3,5.2-2.5
				l3.9,1.3C111.6,54.6,112.8,56.9,112,59L112,59z"/>
			<path style="fill:#333333;" d="M169.4,39.7c4.5,9.5,2.4,22.3,1.3,32c-1.7,14-5.6,27.8-8.6,41.6c-1.5,6.9-3.3,14.1-3.2,21.2
				c0.1,8.2,4.9,15,9.1,22.1c9.8,16.5,15.6,34.3,18.6,52.6c1.1,7,1.8,14,2.3,21.1c-0.8-0.3-1.6-0.5-2.4-0.8
				c4.4-2.2,9.9-3.8,14.9-2.2c7.7,2.5,4.3,12.7-0.5,16c-2.9,2-6.8,2.8-10.2,3.7c-3.1,0.8-3.8,1.7-5.3,4
				c-4.4,7.1-12.9,11.1-21.1,14.1c-17.4,6.5-38.4,8.8-57.1,6.7c-8.2-0.9-16.5-3.1-22.9-7.9c-7.6-5.6-8.3-13.5-8.7-21.7
				c-1.1-25.1,1.5-52,9.9-76.1c4.2-11.9,8.3-23.8,11.7-35.9c1.8-6.6,3.7-13.1,3.3-19.9c-1-16.5-2.2-33-0.8-49.5
				c1.5-17.8,6.4-36.3,28.8-41.2C147.2,15.7,163.3,24.5,169.4,39.7c0.5,1.3-2.2,1.2-2.6,0.2c-3.2-7.9-8.4-14.8-17.6-17.5
				c-13.1-4-27.2-1-36.6,8c-6,5.7-7.8,14.7-9.1,22.1c-1.7,9.8-1.9,19.9-1.7,29.8c0.2,12.8,3.2,26.3,0.5,39
				c-4.9,22.9-16.3,45.9-20.7,68.8c-2.6,13.2-2.9,25.2-3.3,38.6c-0.3,10.1-1.4,23.1,5.3,32.1c10.2,13.6,38.6,10.9,55,8.7
				c17.1-2.4,36.6-7.2,45.5-21.3c1.1-1.7,3-2.1,5-2.7c4.3-1.1,8.7-2.1,11.8-5.2c4.2-4.2,2.8-12.7-4.7-11.9c-2.6,0.3-5.4,1.3-7.7,2.4
				c-0.7,0.3-2.3,0.1-2.4-0.8c-1.4-22.8-5.9-45.4-16.8-66.3c-4.3-8.2-10.3-15.6-12.6-24.5c-1-4.1-0.7-8.4-0.1-12.5
				c1.4-10.7,4.2-21.2,6.7-31.7c4-16.9,9-36.8,3.9-54c-0.1-0.4-0.2-0.8-0.4-1.2C166.3,38.7,169,38.8,169.4,39.7z"/>
			<g>
				<path style="fill:#FFDF4B;" d="M134.4,70.7c0,0,5.4,1.6,0.2,15.1c-5.1,13.5-13.3,26.8-24.6,28.1c-11.3,1.3-28.5-1.7-25.8-14.5
					c2.8-12.8,4.9-29.4,13.4-31C106.3,66.8,120.3,64.5,134.4,70.7z"/>
				<path style="fill:#FFC225;" d="M88.4,85.1c0.7-1.8-0.3-0.3,0.5-2.6c2.1-0.7,9-0.3,10.1-0.3c12.8-0.6,27.4-6.1,27.3-5.9l0.9-0.6
					c1.4-1.7,4.2,0.5,3.3,2.3c-2.4,4.8-10.3,9.6-30.4,11.1c-0.1,0-0.2,0-0.3,0c-2.8-0.1-5.6-0.7-8.3-1.8
					C90.7,87.1,88,85.9,88.4,85.1z"/>
				<path style="fill:#FFFFFF;" d="M139.4,77.2c-2.3,7.1-17.2,40.3-28.7,39.6c-2.1-0.1-1.7-3.2,0.4-3c8.5,0.6,23.5-32.5,25.2-37.7
					C136.9,74.1,140,75.3,139.4,77.2z"/>
				<path style="fill:#333333;" d="M134.7,70.4c2.3,0.8,2.8,3.8,2.9,5.9c0.2,8.3-5.3,17.7-9.6,24.6c-3.9,6.3-10,12.7-17.7,13.5
					c-6.6,0.7-13.6,0.2-19.7-2.5c-4.8-2.1-7.7-6.2-7.2-11.5c0.4-4.6,1.9-9.5,2.9-14.1c1-4.3,2.2-8.6,4.3-12.6
					c3.1-6,8.6-6.3,14.7-7.1C115.3,65.4,125.3,66.5,134.7,70.4c0.9,0.4,0.1,1-0.6,0.7c-8.7-3.6-17.6-4.5-27-3.6
					c-6.8,0.6-12.4,1.2-15.7,7.8c-2.7,5.3-3.8,11.5-5,17.3c-1.4,6.7-3.7,13.2,3,17.7c5,3.4,12.2,3.7,18,3.4
					c8.1-0.4,13.7-5.7,18.2-12c4.4-6.1,7.7-13.6,9.7-20.9c0.6-2.2,1.8-8.6-1.3-9.7C133.2,70.7,134,70.1,134.7,70.4z"/>
				<path style="fill:#FFDF4B;" d="M109.8,60.5c0,0,13.7-1.8,20,3c6.3,4.7,3.6,9.7-3.7,13.1c-7.3,3.4-28.6,9.4-43.7,6.3
					c0,0-10-3.3-6.5-7.5C79.5,71.2,98.8,64.5,109.8,60.5z"/>
				<path style="fill:#FFFFFF;" d="M112.7,58.5c7.2,1.7,21.9,1.3,21.7,11.9c0,2-3.1,1.7-3-0.2c0.1-7.8-14.4-7.6-19.7-8.8
					C109.7,60.9,110.8,58,112.7,58.5z"/>
				<path style="fill:#333333;" d="M109.6,60.1c6.3-0.7,13.9-1.4,19.5,2.3c5.8,3.9,6.6,8.7,0.7,13c-5.4,4-13.5,5.5-19.9,6.9
					c-8.5,1.8-17.3,2.7-25.9,1.4c-3.4-0.5-7.2-2.3-9.1-5.2c-2-3.2,4-5.9,6-6.9c5.3-2.8,11-5,16.6-7.2c3.8-1.5,8-3.5,12-4.3
					c0.6-0.1,1.8,0.7,0.9,0.9c-6.1,1.2-12.4,4.4-18.1,6.8c-4,1.6-7.9,3.4-11.7,5.4c-1.2,0.7-2.5,1.4-3.5,2.3
					c-3.2,2.9,2.2,5.6,4.3,6.5c5.1,2.3,11.9,1.5,17.3,1c6.7-0.6,13.2-2.1,19.6-4c5.1-1.5,12.3-3.6,14.3-9.1c2.2-6-8.7-8.8-12.5-9.3
					c-3.3-0.4-6.7,0.1-9.9,0.4C109.4,61.1,108.6,60.2,109.6,60.1z"/>
			</g>
			<circle style="fill:#FFFFFF;" cx="135.8" cy="53.1" r="1.2"/>
			<path style="fill:#FFFFFF;" d="M113.2,49c0,0.7,0.5,1.2,1.2,1.2c0.7,0,1.2-0.5,1.2-1.2c0-0.7-0.5-1.2-1.2-1.2
				C113.7,47.8,113.2,48.4,113.2,49z"/>
			<g>
				<path style="fill:#1A1A1A;" d="M138.3,45.3c-5-1.1-9.9,2.1-10.9,7.1c-1,5,2.1,9.9,7.1,10.9c5,1.1,9.9-2.1,10.9-7.1
					C146.5,51.2,143.3,46.3,138.3,45.3z M134.9,61.6c-4-0.8-6.6-4.8-5.7-8.8c0.8-4,4.8-6.6,8.8-5.7c4,0.8,6.6,4.8,5.7,8.8
					C142.8,59.8,138.9,62.4,134.9,61.6z"/>
				<path style="fill:#1A1A1A;" d="M116.3,41.2c-5-1-9.9,2.1-10.9,7.1c-1,5,2.1,9.9,7.1,10.9c5,1.1,9.9-2.1,10.9-7.1
					C124.4,47.2,121.2,42.3,116.3,41.2z M112.8,57.5c-4-0.8-6.6-4.8-5.7-8.8c0.8-4,4.8-6.6,8.8-5.7c4,0.8,6.6,4.8,5.7,8.8
					C120.8,55.8,116.8,58.4,112.8,57.5z"/>
				
					<rect x="122" y="51.5" transform="matrix(0.9815 0.1916 -0.1916 0.9815 12.3402 -23.0583)" style="fill:#1A1A1A;" width="6.8" height="1.6"/>
			</g>
			<path style="fill:#424141;" d="M141.6,13.4c0-0.1-4-5.5-8.2-5.3c-2.6-0.7-6,0.1-8.3,1.1c-0.1,0-0.1,0.1-0.2,0.1
				c-5.5,2.2-13.6,8.7-19.4,9.8c-0.3,0-0.6-0.1-0.9-0.2c-0.1,0-0.2,0-0.3,0c-2.7-0.2-4.8-1.7-7.3-2.5C97,16.7,97,17,97,17.3
				c0.2,0.8,0.4,1.7,0.6,2.5c0,0.1,0.1,0.2,0.1,0.4c0.6,1.2,1.3,2.3,1.9,3.3c3.5,5.2,8.5,8.1,15.8,8.7c5,0.4,17.5,0.6,26.2-6.9
				C145.4,21.9,144.5,17.3,141.6,13.4z"/>
			<path style="fill:#424141;" d="M142,15.7c0,0,5-4.6,9.1-3.6c2.7-0.2,5.9,1.3,7.9,2.6c0.1,0,0.1,0.1,0.1,0.1
				c4.9,3.3,11.6,11.1,17.1,13.4c0.3,0,0.6,0,0.9,0c0.1,0,0.2,0,0.3,0.1c2.7,0.3,5.1-0.7,7.6-1.1c0.1,0.3,0.1,0.5,0,0.8
				c-0.4,0.8-0.7,1.6-1.1,2.4c-0.1,0.1-0.1,0.2-0.2,0.3c-0.8,1.1-1.7,2-2.5,2.9c-4.5,4.4-9.9,6.3-17.1,5.4
				c-5-0.6-17.2-2.8-24.3-11.8C136.6,23.2,138.4,19,142,15.7z"/>
			<g>
				<path style="fill:#FFFFFF;" d="M164.3,178.4c-3.1-1.9-6.3-3.7-9.6-5.1c-0.6-0.1-1.2-0.1-1.8-0.2c-1.1-0.1-2.4-0.2-3.7-0.2
					c-2,0.2-4,0.3-6,0.4c3.9,10.9,4.9,24.1-1.6,38.6c0,0-2.6,5.7-4.1,7.3c0,0-14.2,8.8-3,6.8c0,0-4.3,12.1,5.1,4.1
					c0,0-0.2,12.8,7.2-3.6c0,0,19-13.7,23-41.9C167.6,182.9,165.8,180.7,164.3,178.4z"/>
				<path style="fill:none;stroke:#333333;stroke-width:1.5;stroke-linecap:round;stroke-linejoin:round;stroke-miterlimit:10;" d="
					M143.5,174.3c6.6,16.6,0.8,37.1-12.4,50.2c-1.5,2.9,1.5,1.5,3.4,1.5c-1.9,5.5-0.5,9,5.1,4.1c-0.1,6,2.7,5,5.3,0.3
					c2.1-3.9,3.2-4.6,6.3-7.5c10.3-9.6,16.8-22.8,18.9-36.7"/>
			</g>
			<g>
				<polygon style="fill:#F48D40;" points="19.1,81.3 19.9,100.1 33.6,81.3 				"/>
				<polygon style="fill:#E0863B;" points="6,97.3 19.1,81.3 19.9,100.1 				"/>
				<polygon style="fill:#CC7C40;" points="6,97.3 33.5,120.7 19.9,100.1 				"/>
				<polygon style="fill:#EFA46C;" points="33.5,81.3 19.9,100.1 33.5,100.1 47.2,100.1 				"/>
				<polygon style="fill:#F48D40;" points="48.2,81.3 47.2,100.1 33.5,81.3 				"/>
				<polygon style="fill:#E0863B;" points="61.1,97.3 48.2,81.3 47.2,100.1 				"/>
				<polygon style="fill:#CC7C40;" points="61.1,97.3 33.5,120.7 47.2,100.1 				"/>
				<polygon style="fill:#DD8447;" points="19.9,100.1 47.2,100.1 33.5,120.7 				"/>
			</g>
		</g>
	</g>
</g>
</svg>
